<svg xmlns="http://www.w3.org/2000/svg" viewBox="0 0 159.65 41.15"><defs><style>.cls-1{fill:#024059;}</style></defs><title>icon master</title><g id="Livello_2" data-name="Livello 2"><g id="Livello_1-2" data-name="Livello 1"><path class="cls-1" d="M17.66,40.5H0L10.29,10.87A15.25,15.25,0,0,1,24.69.63H39L52.86,40.5H35.22l-2.3-6.74H20Zm5.51-16.15h6.54l-3.27-9.9Z"/><path class="cls-1" d="M96,31.88l6.69,8.62H89.39L88.21,39a20.83,20.83,0,0,1-9.33,2.19,19.61,19.61,0,0,1-14.48-6,19.94,19.94,0,0,1-6-14.61A19.85,19.85,0,0,1,64.4,6a20.59,20.59,0,0,1,29,0,19.88,19.88,0,0,1,5.94,14.57A20.37,20.37,0,0,1,96,31.88ZM78.88,15.28a3.73,3.73,0,0,0-2.82,1.19,4.19,4.19,0,0,0-1.12,3,4.2,4.2,0,0,0,1.12,3,4,4,0,0,0,5.67,0,4.2,4.2,0,0,0,1.12-3,4.19,4.19,0,0,0-1.12-3A3.77,3.77,0,0,0,78.88,15.28Z"/><path class="cls-1" d="M111,40.5V14.78A14.15,14.15,0,0,1,125.1.63h3l7.21,8.31L142.54.63h17.11V40.5H142v-20l-6.69,7.7-6.68-7.7v20Z"/></g></g></svg>