<svg xmlns="http://www.w3.org/2000/svg" xmlns:xlink="http://www.w3.org/1999/xlink" viewBox="0 0 171.4 84.35"><defs><style>.cls-1{fill:#006837;}.cls-2{fill:url(#Sfumatura_senza_nome_4);}</style><linearGradient id="Sfumatura_senza_nome_4" x1="171.4" y1="82.02" x2="0.62" y2="82.02" gradientUnits="userSpaceOnUse"><stop offset="0" stop-color="#c8ff3f"/><stop offset="1" stop-color="#ff8a7f"/></linearGradient></defs><title>Risorsa 5</title><g id="Livello_2" data-name="Livello 2"><g id="Livello_1-2" data-name="Livello 1"><path class="cls-1" d="M0,68.09,25.33,1.5H41.62l25.7,66.59H51.12L45.71,53.94H19.92L15.28,68.09ZM42.39,42.76,34.93,21.24c-.21-.64-.48-1.73-.82-3.27s-.68-3.45-1-5.69c-.4,2.15-.78,4.09-1.14,5.8s-.64,2.86-.82,3.43L23.92,42.76Z"/><path class="cls-1" d="M140.32,75.82H126.15l-7.22-8.55q-4.91,1.28-8.14,1.84a33.78,33.78,0,0,1-5.78.57A35.25,35.25,0,0,1,91.58,67a35.58,35.58,0,0,1-11.47-7.46,34.44,34.44,0,0,1-7.73-11.3,34.6,34.6,0,0,1,0-26.75,34.75,34.75,0,0,1,7.76-11.35A34.06,34.06,0,0,1,91.57,2.62,36.38,36.38,0,0,1,105.3,0a35.81,35.81,0,0,1,13.56,2.62,35.1,35.1,0,0,1,19.24,18.8,34.16,34.16,0,0,1,2.67,13.42,33.53,33.53,0,0,1-3.22,14.6,36.17,36.17,0,0,1-9.47,12.06ZM114.76,45.53l4.89,5.78a22.05,22.05,0,0,0,4.73-7.49A24.38,24.38,0,0,0,126,34.93,22.64,22.64,0,0,0,120.1,19a19.28,19.28,0,0,0-14.8-6.46,19.48,19.48,0,0,0-15,6.44,22.65,22.65,0,0,0-5.93,15.94q0,9.6,5.82,15.92A19.59,19.59,0,0,0,107.18,57c.92-.1,2-.26,3.28-.47l-9.56-11Z"/><path class="cls-1" d="M162.15,19.69a2,2,0,0,0-1.32.42,2.35,2.35,0,0,0-.75,1.25h3.66a1.82,1.82,0,0,0-.42-1.24A1.55,1.55,0,0,0,162.15,19.69Z"/><path class="cls-1" d="M162.15,46.73a2,2,0,0,0-1.32.42,2.35,2.35,0,0,0-.75,1.25h3.66a1.82,1.82,0,0,0-.42-1.24A1.55,1.55,0,0,0,162.15,46.73Z"/><path class="cls-1" d="M151.59,1.5V68.09H171.4V1.5ZM164.85,60l-.47-.12a3.27,3.27,0,0,0-.44,0,1.74,1.74,0,0,0-1.42.64,3.67,3.67,0,0,0-.68,1.92l-.42,3.31h-2.25l1-7.77h2.24l-.2,1.36a3.34,3.34,0,0,1,1-1.21,2.32,2.32,0,0,1,1.33-.41l.37,0a1.75,1.75,0,0,1,.33.06Zm1-10.34v0H160v.18a1.58,1.58,0,0,0,.49,1.23,2,2,0,0,0,1.36.46,2.16,2.16,0,0,0,1.06-.26,3,3,0,0,0,.89-.83l1.51,1.25A3.68,3.68,0,0,1,163.8,53a4.92,4.92,0,0,1-2.1.42,4,4,0,0,1-2.88-1,3.71,3.71,0,0,1-1.08-2.79A4.44,4.44,0,0,1,159,46.34a4.24,4.24,0,0,1,3.14-1.27,3.62,3.62,0,0,1,2.75,1.06,4.15,4.15,0,0,1,1,2.93C165.87,49.19,165.86,49.39,165.84,49.67Zm-1-17-.22,1.76h-1.52l-.79,6h-2.24l.8-6H159.4l.23-1.76h1.47l.34-2.59h2.26l-.36,2.59Zm1-10.08v0H160v.18a1.58,1.58,0,0,0,.49,1.23,1.92,1.92,0,0,0,1.36.46,2.16,2.16,0,0,0,1.06-.26,3,3,0,0,0,.89-.83l1.51,1.25A3.68,3.68,0,0,1,163.8,26a4.92,4.92,0,0,1-2.1.42,4,4,0,0,1-2.88-1.05,3.71,3.71,0,0,1-1.08-2.79A4.44,4.44,0,0,1,159,19.3,4.24,4.24,0,0,1,162.12,18a3.62,3.62,0,0,1,2.75,1.06,4.15,4.15,0,0,1,1,2.93C165.87,22.15,165.86,22.36,165.84,22.64Zm2-14.28c0,.24-.06.57-.12,1l-.53,4.09H165l.55-4.34s0-.14,0-.26a3.49,3.49,0,0,0,.05-.43,1.27,1.27,0,0,0-.25-.87.94.94,0,0,0-.75-.28,1.34,1.34,0,0,0-1.14.54,4,4,0,0,0-.55,1.8l-.5,3.84H160.2l.57-4.34a3.65,3.65,0,0,0,0-.42c0-.12,0-.21,0-.27a1.33,1.33,0,0,0-.25-.87.94.94,0,0,0-.74-.28,1.31,1.31,0,0,0-1.12.53,3.94,3.94,0,0,0-.55,1.81l-.51,3.84h-2.2l1-7.77h2.07l-.17,1.21a4.45,4.45,0,0,1,1.21-1.13,2.53,2.53,0,0,1,1.3-.35,2.24,2.24,0,0,1,1.34.39A2.42,2.42,0,0,1,163.06,7a4.88,4.88,0,0,1,1.28-1.19,2.51,2.51,0,0,1,1.31-.36,2.14,2.14,0,0,1,1.63.63,2.41,2.41,0,0,1,.6,1.73C167.88,7.94,167.87,8.14,167.85,8.36Z"/><rect class="cls-2" x="0.62" y="79.69" width="170.78" height="4.66"/></g></g></svg>